<svg id="visual" viewBox="0 0 4096 1080" width="4096" height="1080" xmlns="http://www.w3.org/2000/svg" xmlns:xlink="http://www.w3.org/1999/xlink" version="1.1"><rect x="0" y="0" width="4096" height="1080" fill="#001220"></rect><path d="M0 446L48.8 435.7C97.7 425.3 195.3 404.7 292.8 407.3C390.3 410 487.7 436 585.2 445.7C682.7 455.3 780.3 448.7 877.8 467.3C975.3 486 1072.7 530 1170.2 511.2C1267.7 492.3 1365.3 410.7 1462.8 394.5C1560.3 378.3 1657.7 427.7 1755.2 451.8C1852.7 476 1950.3 475 2048 502.2C2145.7 529.3 2243.3 584.7 2340.8 547C2438.3 509.3 2535.7 378.7 2633.2 367.5C2730.7 356.3 2828.3 464.7 2925.8 473.5C3023.3 482.3 3120.7 391.7 3218.2 327C3315.7 262.3 3413.3 223.7 3510.8 223.7C3608.3 223.7 3705.7 262.3 3803.2 257.5C3900.7 252.7 3998.3 204.3 4047.2 180.2L4096 156L4096 1081L4047.2 1081C3998.3 1081 3900.7 1081 3803.2 1081C3705.7 1081 3608.3 1081 3510.8 1081C3413.3 1081 3315.7 1081 3218.2 1081C3120.7 1081 3023.3 1081 2925.8 1081C2828.3 1081 2730.7 1081 2633.2 1081C2535.7 1081 2438.3 1081 2340.8 1081C2243.3 1081 2145.7 1081 2048 1081C1950.3 1081 1852.7 1081 1755.2 1081C1657.7 1081 1560.3 1081 1462.8 1081C1365.3 1081 1267.7 1081 1170.2 1081C1072.7 1081 975.3 1081 877.8 1081C780.3 1081 682.7 1081 585.2 1081C487.7 1081 390.3 1081 292.8 1081C195.3 1081 97.7 1081 48.8 1081L0 1081Z" fill="#fa7268"></path><path d="M0 548L48.8 531.2C97.7 514.3 195.3 480.7 292.8 448.2C390.3 415.7 487.7 384.3 585.2 423.8C682.7 463.3 780.3 573.7 877.8 587.8C975.3 602 1072.7 520 1170.2 449.2C1267.7 378.3 1365.3 318.7 1462.8 327.3C1560.3 336 1657.7 413 1755.2 477.3C1852.7 541.7 1950.3 593.3 2048 560.2C2145.7 527 2243.3 409 2340.8 395.5C2438.3 382 2535.7 473 2633.2 504.7C2730.7 536.3 2828.3 508.7 2925.8 523.8C3023.3 539 3120.7 597 3218.2 569.8C3315.7 542.7 3413.3 430.3 3510.8 387.8C3608.3 345.3 3705.7 372.7 3803.2 361.2C3900.7 349.7 3998.3 299.3 4047.2 274.2L4096 249L4096 1081L4047.2 1081C3998.3 1081 3900.7 1081 3803.2 1081C3705.7 1081 3608.3 1081 3510.8 1081C3413.3 1081 3315.7 1081 3218.2 1081C3120.7 1081 3023.3 1081 2925.8 1081C2828.3 1081 2730.7 1081 2633.2 1081C2535.7 1081 2438.3 1081 2340.8 1081C2243.3 1081 2145.7 1081 2048 1081C1950.3 1081 1852.7 1081 1755.2 1081C1657.7 1081 1560.3 1081 1462.8 1081C1365.3 1081 1267.7 1081 1170.2 1081C1072.7 1081 975.3 1081 877.8 1081C780.3 1081 682.7 1081 585.2 1081C487.7 1081 390.3 1081 292.8 1081C195.3 1081 97.7 1081 48.8 1081L0 1081Z" fill="#f36567"></path><path d="M0 772L48.8 749.2C97.7 726.3 195.3 680.7 292.8 613.7C390.3 546.7 487.7 458.3 585.2 479.8C682.7 501.3 780.3 632.7 877.8 664C975.3 695.3 1072.7 626.7 1170.2 575.2C1267.7 523.7 1365.3 489.3 1462.8 479.5C1560.3 469.7 1657.7 484.3 1755.2 530C1852.7 575.7 1950.3 652.3 2048 687C2145.7 721.7 2243.3 714.3 2340.8 702C2438.3 689.7 2535.7 672.3 2633.2 673.7C2730.7 675 2828.3 695 2925.8 683.8C3023.3 672.7 3120.7 630.3 3218.2 625.5C3315.7 620.7 3413.3 653.3 3510.8 618C3608.3 582.7 3705.7 479.3 3803.2 438C3900.7 396.7 3998.3 417.3 4047.2 427.7L4096 438L4096 1081L4047.2 1081C3998.3 1081 3900.7 1081 3803.2 1081C3705.7 1081 3608.3 1081 3510.8 1081C3413.3 1081 3315.7 1081 3218.2 1081C3120.7 1081 3023.3 1081 2925.8 1081C2828.3 1081 2730.7 1081 2633.2 1081C2535.7 1081 2438.3 1081 2340.8 1081C2243.3 1081 2145.7 1081 2048 1081C1950.3 1081 1852.7 1081 1755.2 1081C1657.7 1081 1560.3 1081 1462.8 1081C1365.3 1081 1267.7 1081 1170.2 1081C1072.7 1081 975.3 1081 877.8 1081C780.3 1081 682.7 1081 585.2 1081C487.7 1081 390.3 1081 292.8 1081C195.3 1081 97.7 1081 48.8 1081L0 1081Z" fill="#eb5967"></path><path d="M0 535L48.8 546.2C97.7 557.3 195.3 579.7 292.8 595.8C390.3 612 487.7 622 585.2 626.5C682.7 631 780.3 630 877.8 620C975.3 610 1072.7 591 1170.2 576C1267.7 561 1365.3 550 1462.8 581C1560.3 612 1657.7 685 1755.2 720C1852.7 755 1950.3 752 2048 748.7C2145.7 745.3 2243.3 741.7 2340.8 747.2C2438.3 752.7 2535.7 767.3 2633.2 733.2C2730.7 699 2828.3 616 2925.8 570.8C3023.3 525.7 3120.7 518.3 3218.2 533C3315.7 547.7 3413.3 584.3 3510.8 629.3C3608.3 674.3 3705.7 727.7 3803.2 733C3900.7 738.3 3998.3 695.7 4047.2 674.3L4096 653L4096 1081L4047.2 1081C3998.3 1081 3900.7 1081 3803.2 1081C3705.7 1081 3608.3 1081 3510.8 1081C3413.3 1081 3315.7 1081 3218.2 1081C3120.7 1081 3023.3 1081 2925.8 1081C2828.3 1081 2730.7 1081 2633.2 1081C2535.7 1081 2438.3 1081 2340.8 1081C2243.3 1081 2145.7 1081 2048 1081C1950.3 1081 1852.7 1081 1755.2 1081C1657.7 1081 1560.3 1081 1462.8 1081C1365.3 1081 1267.7 1081 1170.2 1081C1072.7 1081 975.3 1081 877.8 1081C780.3 1081 682.7 1081 585.2 1081C487.7 1081 390.3 1081 292.8 1081C195.3 1081 97.7 1081 48.8 1081L0 1081Z" fill="#e34c67"></path><path d="M0 718L48.8 741.2C97.7 764.3 195.3 810.7 292.8 810.2C390.3 809.7 487.7 762.3 585.2 736.5C682.7 710.7 780.3 706.3 877.8 701.5C975.3 696.7 1072.7 691.3 1170.2 687.3C1267.7 683.3 1365.3 680.7 1462.8 702.2C1560.3 723.7 1657.7 769.3 1755.2 805.5C1852.7 841.7 1950.3 868.3 2048 833.7C2145.7 799 2243.3 703 2340.8 702C2438.3 701 2535.7 795 2633.2 820.8C2730.7 846.7 2828.3 804.3 2925.8 773C3023.3 741.7 3120.7 721.3 3218.2 731.2C3315.7 741 3413.3 781 3510.8 770.7C3608.3 760.3 3705.7 699.7 3803.2 665.8C3900.7 632 3998.3 625 4047.2 621.5L4096 618L4096 1081L4047.2 1081C3998.3 1081 3900.7 1081 3803.2 1081C3705.7 1081 3608.3 1081 3510.8 1081C3413.3 1081 3315.7 1081 3218.2 1081C3120.7 1081 3023.3 1081 2925.8 1081C2828.3 1081 2730.7 1081 2633.2 1081C2535.7 1081 2438.3 1081 2340.8 1081C2243.3 1081 2145.7 1081 2048 1081C1950.3 1081 1852.7 1081 1755.2 1081C1657.7 1081 1560.3 1081 1462.8 1081C1365.3 1081 1267.7 1081 1170.2 1081C1072.7 1081 975.3 1081 877.8 1081C780.3 1081 682.7 1081 585.2 1081C487.7 1081 390.3 1081 292.8 1081C195.3 1081 97.7 1081 48.8 1081L0 1081Z" fill="#da3f67"></path><path d="M0 785L48.8 779.3C97.7 773.7 195.3 762.3 292.8 788.8C390.3 815.3 487.7 879.7 585.2 913C682.7 946.3 780.3 948.7 877.8 949.2C975.3 949.7 1072.7 948.3 1170.2 929.2C1267.7 910 1365.3 873 1462.8 857.8C1560.3 842.7 1657.7 849.3 1755.2 845.5C1852.7 841.7 1950.3 827.3 2048 832.5C2145.7 837.7 2243.3 862.3 2340.8 866.7C2438.3 871 2535.7 855 2633.2 861.8C2730.7 868.7 2828.3 898.3 2925.8 898.3C3023.3 898.3 3120.7 868.7 3218.2 842.3C3315.7 816 3413.3 793 3510.8 810.5C3608.3 828 3705.7 886 3803.2 905.2C3900.7 924.3 3998.3 904.7 4047.2 894.8L4096 885L4096 1081L4047.2 1081C3998.3 1081 3900.7 1081 3803.2 1081C3705.7 1081 3608.3 1081 3510.8 1081C3413.3 1081 3315.7 1081 3218.2 1081C3120.7 1081 3023.3 1081 2925.8 1081C2828.3 1081 2730.7 1081 2633.2 1081C2535.7 1081 2438.3 1081 2340.8 1081C2243.3 1081 2145.7 1081 2048 1081C1950.3 1081 1852.7 1081 1755.2 1081C1657.7 1081 1560.3 1081 1462.8 1081C1365.3 1081 1267.7 1081 1170.2 1081C1072.7 1081 975.3 1081 877.8 1081C780.3 1081 682.7 1081 585.2 1081C487.7 1081 390.3 1081 292.8 1081C195.3 1081 97.7 1081 48.8 1081L0 1081Z" fill="#d03267"></path><path d="M0 1022L48.8 1003.8C97.7 985.7 195.3 949.3 292.8 924.8C390.3 900.3 487.7 887.7 585.2 880C682.7 872.3 780.3 869.7 877.8 888.5C975.3 907.3 1072.7 947.7 1170.2 970.7C1267.7 993.7 1365.3 999.3 1462.8 996.2C1560.3 993 1657.7 981 1755.2 963.3C1852.7 945.7 1950.3 922.3 2048 920.2C2145.7 918 2243.3 937 2340.8 960.2C2438.3 983.3 2535.7 1010.7 2633.2 1010.3C2730.7 1010 2828.3 982 2925.8 967.3C3023.3 952.7 3120.7 951.3 3218.2 955.3C3315.7 959.3 3413.3 968.7 3510.8 980C3608.3 991.3 3705.7 1004.7 3803.2 1006C3900.7 1007.3 3998.3 996.7 4047.2 991.3L4096 986L4096 1081L4047.2 1081C3998.3 1081 3900.7 1081 3803.2 1081C3705.7 1081 3608.3 1081 3510.8 1081C3413.3 1081 3315.7 1081 3218.2 1081C3120.7 1081 3023.3 1081 2925.8 1081C2828.3 1081 2730.7 1081 2633.2 1081C2535.7 1081 2438.3 1081 2340.8 1081C2243.3 1081 2145.7 1081 2048 1081C1950.3 1081 1852.7 1081 1755.2 1081C1657.7 1081 1560.3 1081 1462.8 1081C1365.3 1081 1267.7 1081 1170.2 1081C1072.7 1081 975.3 1081 877.8 1081C780.3 1081 682.7 1081 585.2 1081C487.7 1081 390.3 1081 292.8 1081C195.3 1081 97.7 1081 48.8 1081L0 1081Z" fill="#c62368"></path></svg>