<svg id="visual" viewBox="0 0 4096 1080" width="4096" height="1080" xmlns="http://www.w3.org/2000/svg" xmlns:xlink="http://www.w3.org/1999/xlink" version="1.1"><g stroke-width="3" stroke-linejoin="bevel"><path d="M2136.5 521L2149.5 354L1976.5 473Z" fill="#000d17" stroke="#000000"></path><path d="M2149.5 354L1824.5 301L1976.5 473Z" fill="#040f18" stroke="#000000"></path><path d="M1609.4 528L1910.5 778L1976.5 473Z" fill="#081019" stroke="#000000"></path><path d="M1976.5 473L1910.5 778L2136.5 521Z" fill="#191b1e" stroke="#000000"></path><path d="M2482.6 603L2409.6 228L2149.5 354Z" fill="#15181d" stroke="#000000"></path><path d="M2149.5 354L2102.5 0L1824.5 301Z" fill="#15181d" stroke="#000000"></path><path d="M2482.6 603L2149.5 354L2136.5 521Z" fill="#13161c" stroke="#000000"></path><path d="M2409.6 228L2102.5 0L2149.5 354Z" fill="#0e141a" stroke="#000000"></path><path d="M2217.5 886L2482.6 603L2136.5 521Z" fill="#191b1e" stroke="#000000"></path><path d="M2102.5 0L1906.5 0L1824.5 301Z" fill="#0b1219" stroke="#000000"></path><path d="M1910.5 778L2217.5 886L2136.5 521Z" fill="#13161c" stroke="#000000"></path><path d="M1622.4 195L1609.4 528L1824.5 301Z" fill="#081019" stroke="#000000"></path><path d="M1824.5 301L1609.4 528L1976.5 473Z" fill="#0e141a" stroke="#000000"></path><path d="M1677.4 0L1622.4 195L1824.5 301Z" fill="#17191d" stroke="#000000"></path><path d="M1609.4 528L1735.4 839L1910.5 778Z" fill="#0b1219" stroke="#000000"></path><path d="M1910.5 778L2198.5 1080L2217.5 886Z" fill="#081019" stroke="#000000"></path><path d="M2659.7 0L2440.6 0L2409.6 228Z" fill="#15181d" stroke="#000000"></path><path d="M2409.6 228L2440.6 0L2102.5 0Z" fill="#0e141a" stroke="#000000"></path><path d="M2800.7 771L2648.7 500L2482.6 603Z" fill="#040f18" stroke="#000000"></path><path d="M2482.6 603L2648.7 500L2409.6 228Z" fill="#15181d" stroke="#000000"></path><path d="M1906.5 0L1677.4 0L1824.5 301Z" fill="#11151b" stroke="#000000"></path><path d="M2217.5 886L2480.6 880L2482.6 603Z" fill="#081019" stroke="#000000"></path><path d="M1833.5 1080L2198.5 1080L1910.5 778Z" fill="#1b1c1f" stroke="#000000"></path><path d="M2217.5 886L2198.5 1080L2480.6 880Z" fill="#17191d" stroke="#000000"></path><path d="M2980.7 624L2739.7 359L2648.7 500Z" fill="#081019" stroke="#000000"></path><path d="M2648.7 500L2739.7 359L2409.6 228Z" fill="#0b1219" stroke="#000000"></path><path d="M1735.4 839L1833.5 1080L1910.5 778Z" fill="#0b1219" stroke="#000000"></path><path d="M1300.3 0L1383.3 221L1622.4 195Z" fill="#1b1c1f" stroke="#000000"></path><path d="M1622.4 195L1383.3 221L1609.4 528Z" fill="#191b1e" stroke="#000000"></path><path d="M1332.3 1080L1723.4 1080L1735.4 839Z" fill="#1b1c1f" stroke="#000000"></path><path d="M1735.4 839L1723.4 1080L1833.5 1080Z" fill="#081019" stroke="#000000"></path><path d="M2739.7 359L2659.7 0L2409.6 228Z" fill="#040f18" stroke="#000000"></path><path d="M1279.3 786L1735.4 839L1609.4 528Z" fill="#040f18" stroke="#000000"></path><path d="M2198.5 1080L2524.6 1080L2480.6 880Z" fill="#191b1e" stroke="#000000"></path><path d="M2480.6 880L2800.7 771L2482.6 603Z" fill="#040f18" stroke="#000000"></path><path d="M2645.7 1080L2800.7 771L2480.6 880Z" fill="#0b1219" stroke="#000000"></path><path d="M1383.3 221L1272.3 596L1609.4 528Z" fill="#0e141a" stroke="#000000"></path><path d="M2524.6 1080L2645.7 1080L2480.6 880Z" fill="#1b1c1f" stroke="#000000"></path><path d="M1272.3 596L1279.3 786L1609.4 528Z" fill="#081019" stroke="#000000"></path><path d="M1677.4 0L1300.3 0L1622.4 195Z" fill="#0e141a" stroke="#000000"></path><path d="M1383.3 221L1105.3 368L1272.3 596Z" fill="#081019" stroke="#000000"></path><path d="M2800.7 771L2980.7 624L2648.7 500Z" fill="#15181d" stroke="#000000"></path><path d="M2739.7 359L3077.7 271L2659.7 0Z" fill="#0b1219" stroke="#000000"></path><path d="M2977.7 766L2980.7 624L2800.7 771Z" fill="#040f18" stroke="#000000"></path><path d="M3054.7 1080L2977.7 766L2800.7 771Z" fill="#0e141a" stroke="#000000"></path><path d="M1170.3 0L1105.3 368L1383.3 221Z" fill="#191b1e" stroke="#000000"></path><path d="M1272.3 596L1051.3 847L1279.3 786Z" fill="#17191d" stroke="#000000"></path><path d="M1279.3 786L1332.3 1080L1735.4 839Z" fill="#1b1c1f" stroke="#000000"></path><path d="M1169.3 1080L1332.3 1080L1279.3 786Z" fill="#0e141a" stroke="#000000"></path><path d="M1300.3 0L1170.3 0L1383.3 221Z" fill="#15181d" stroke="#000000"></path><path d="M3248.8 588L3077.7 271L2980.7 624Z" fill="#0b1219" stroke="#000000"></path><path d="M2980.7 624L3077.7 271L2739.7 359Z" fill="#15181d" stroke="#000000"></path><path d="M912.2 505L1062.3 528L1105.3 368Z" fill="#040f18" stroke="#000000"></path><path d="M1105.3 368L1062.3 528L1272.3 596Z" fill="#0b1219" stroke="#000000"></path><path d="M1062.3 528L1051.3 847L1272.3 596Z" fill="#0e141a" stroke="#000000"></path><path d="M3077.7 271L3098.7 0L2659.7 0Z" fill="#15181d" stroke="#000000"></path><path d="M1051.3 847L1169.3 1080L1279.3 786Z" fill="#11151b" stroke="#000000"></path><path d="M1062.3 528L912.2 505L1051.3 847Z" fill="#11151b" stroke="#000000"></path><path d="M796.2 270L912.2 505L1105.3 368Z" fill="#17191d" stroke="#000000"></path><path d="M2645.7 1080L3054.7 1080L2800.7 771Z" fill="#081019" stroke="#000000"></path><path d="M2977.7 766L3248.8 588L2980.7 624Z" fill="#0b1219" stroke="#000000"></path><path d="M3077.7 271L3285.8 0L3098.7 0Z" fill="#000d17" stroke="#000000"></path><path d="M3332.8 748L3248.8 588L2977.7 766Z" fill="#040f18" stroke="#000000"></path><path d="M3248.8 588L3320.8 270L3077.7 271Z" fill="#1b1c1f" stroke="#000000"></path><path d="M3320.8 270L3285.8 0L3077.7 271Z" fill="#13161c" stroke="#000000"></path><path d="M1170.3 0L796.2 270L1105.3 368Z" fill="#17191d" stroke="#000000"></path><path d="M912.2 505L760.2 764L1051.3 847Z" fill="#000d17" stroke="#000000"></path><path d="M3054.7 1080L3193.8 1080L2977.7 766Z" fill="#040f18" stroke="#000000"></path><path d="M3601.9 535L3548.9 246L3320.8 270Z" fill="#11151b" stroke="#000000"></path><path d="M3193.8 1080L3332.8 748L2977.7 766Z" fill="#11151b" stroke="#000000"></path><path d="M1170.3 0L821.2 0L796.2 270Z" fill="#081019" stroke="#000000"></path><path d="M551.1 632L760.2 764L912.2 505Z" fill="#15181d" stroke="#000000"></path><path d="M1051.3 847L811.2 1080L1169.3 1080Z" fill="#0b1219" stroke="#000000"></path><path d="M760.2 764L811.2 1080L1051.3 847Z" fill="#11151b" stroke="#000000"></path><path d="M3601.9 535L3248.8 588L3332.8 748Z" fill="#000d17" stroke="#000000"></path><path d="M3601.9 535L3320.8 270L3248.8 588Z" fill="#13161c" stroke="#000000"></path><path d="M3320.8 270L3497.9 0L3285.8 0Z" fill="#000d17" stroke="#000000"></path><path d="M3548.9 246L3497.9 0L3320.8 270Z" fill="#13161c" stroke="#000000"></path><path d="M3632.9 802L3601.9 535L3332.8 748Z" fill="#0b1219" stroke="#000000"></path><path d="M821.2 0L565.1 190L796.2 270Z" fill="#1b1c1f" stroke="#000000"></path><path d="M796.2 270L551.1 632L912.2 505Z" fill="#0e141a" stroke="#000000"></path><path d="M760.2 764L565.1 1080L811.2 1080Z" fill="#0e141a" stroke="#000000"></path><path d="M565.1 190L551.1 632L796.2 270Z" fill="#0e141a" stroke="#000000"></path><path d="M3193.8 1080L3484.9 1080L3332.8 748Z" fill="#040f18" stroke="#000000"></path><path d="M3484.9 1080L3632.9 802L3332.8 748Z" fill="#11151b" stroke="#000000"></path><path d="M252.1 619L496.1 851L551.1 632Z" fill="#15181d" stroke="#000000"></path><path d="M551.1 632L496.1 851L760.2 764Z" fill="#191b1e" stroke="#000000"></path><path d="M496.1 851L565.1 1080L760.2 764Z" fill="#0e141a" stroke="#000000"></path><path d="M3869.9 620L3730.9 229L3601.9 535Z" fill="#15181d" stroke="#000000"></path><path d="M3601.9 535L3730.9 229L3548.9 246Z" fill="#13161c" stroke="#000000"></path><path d="M3548.9 246L3730.9 229L3497.9 0Z" fill="#0e141a" stroke="#000000"></path><path d="M821.2 0L454.1 0L565.1 190Z" fill="#040f18" stroke="#000000"></path><path d="M565.1 190L337.1 345L551.1 632Z" fill="#0b1219" stroke="#000000"></path><path d="M454.1 0L337.1 345L565.1 190Z" fill="#0b1219" stroke="#000000"></path><path d="M496.1 851L265.1 1080L565.1 1080Z" fill="#17191d" stroke="#000000"></path><path d="M3484.9 1080L3769.9 871L3632.9 802Z" fill="#040f18" stroke="#000000"></path><path d="M3632.9 802L3869.9 620L3601.9 535Z" fill="#17191d" stroke="#000000"></path><path d="M3769.9 871L3869.9 620L3632.9 802Z" fill="#0b1219" stroke="#000000"></path><path d="M4096 315L3842.9 0L3730.9 229Z" fill="#15181d" stroke="#000000"></path><path d="M3730.9 229L3842.9 0L3497.9 0Z" fill="#081019" stroke="#000000"></path><path d="M337.1 345L252.1 619L551.1 632Z" fill="#081019" stroke="#000000"></path><path d="M454.1 0L282.1 0L337.1 345Z" fill="#0e141a" stroke="#000000"></path><path d="M337.1 345L0 237L252.1 619Z" fill="#0b1219" stroke="#000000"></path><path d="M3484.9 1080L3813.9 1080L3769.9 871Z" fill="#191b1e" stroke="#000000"></path><path d="M3769.9 871L4096 780L3869.9 620Z" fill="#15181d" stroke="#000000"></path><path d="M0 635L226.1 839L252.1 619Z" fill="#1b1c1f" stroke="#000000"></path><path d="M252.1 619L226.1 839L496.1 851Z" fill="#1b1c1f" stroke="#000000"></path><path d="M226.1 839L265.1 1080L496.1 851Z" fill="#13161c" stroke="#000000"></path><path d="M4096 780L4096 455L3869.9 620Z" fill="#13161c" stroke="#000000"></path><path d="M3869.9 620L4096 455L3730.9 229Z" fill="#1b1c1f" stroke="#000000"></path><path d="M4096 455L4096 315L3730.9 229Z" fill="#000d17" stroke="#000000"></path><path d="M4096 1080L4096 780L3769.9 871Z" fill="#11151b" stroke="#000000"></path><path d="M4096 315L4096 0L3842.9 0Z" fill="#000d17" stroke="#000000"></path><path d="M282.1 0L0 237L337.1 345Z" fill="#0e141a" stroke="#000000"></path><path d="M226.1 839L0 1080L265.1 1080Z" fill="#081019" stroke="#000000"></path><path d="M0 237L0 635L252.1 619Z" fill="#0e141a" stroke="#000000"></path><path d="M0 635L0 844L226.1 839Z" fill="#17191d" stroke="#000000"></path><path d="M282.1 0L0 0L0 237Z" fill="#17191d" stroke="#000000"></path><path d="M3813.9 1080L4096 1080L3769.9 871Z" fill="#13161c" stroke="#000000"></path><path d="M0 844L0 1080L226.1 839Z" fill="#0b1219" stroke="#000000"></path></g></svg>