<svg id="visual" viewBox="0 0 3072 768" width="3072" height="768" xmlns="http://www.w3.org/2000/svg" xmlns:xlink="http://www.w3.org/1999/xlink" version="1.1"><rect x="0" y="0" width="3072" height="768" fill="#1B1C1F"></rect><path d="M0 419L134 401L267 302L401 423L534 443L668 413L801 493L935 419L1069 303L1202 373L1336 398L1469 283L1603 322L1736 435L1870 453L2003 331L2137 489L2271 350L2404 281L2538 476L2671 465L2805 396L2938 309L3072 312L3072 769L2938 769L2805 769L2671 769L2538 769L2404 769L2271 769L2137 769L2003 769L1870 769L1736 769L1603 769L1469 769L1336 769L1202 769L1069 769L935 769L801 769L668 769L534 769L401 769L267 769L134 769L0 769Z" fill="#1a1b1f"></path><path d="M0 464L134 466L267 353L401 455L534 355L668 415L801 390L935 413L1069 477L1202 375L1336 384L1469 455L1603 445L1736 497L1870 379L2003 526L2137 512L2271 411L2404 473L2538 540L2671 489L2805 371L2938 498L3072 424L3072 769L2938 769L2805 769L2671 769L2538 769L2404 769L2271 769L2137 769L2003 769L1870 769L1736 769L1603 769L1469 769L1336 769L1202 769L1069 769L935 769L801 769L668 769L534 769L401 769L267 769L134 769L0 769Z" fill="#191a1e"></path><path d="M0 505L134 574L267 433L401 475L534 464L668 583L801 517L935 481L1069 576L1202 477L1336 432L1469 451L1603 407L1736 471L1870 570L2003 578L2137 528L2271 561L2404 552L2538 483L2671 483L2805 476L2938 516L3072 438L3072 769L2938 769L2805 769L2671 769L2538 769L2404 769L2271 769L2137 769L2003 769L1870 769L1736 769L1603 769L1469 769L1336 769L1202 769L1069 769L935 769L801 769L668 769L534 769L401 769L267 769L134 769L0 769Z" fill="#18191c"></path><path d="M0 488L134 584L267 576L401 498L534 613L668 619L801 485L935 628L1069 519L1202 510L1336 521L1469 523L1603 601L1736 609L1870 605L2003 468L2137 502L2271 491L2404 614L2538 472L2671 612L2805 589L2938 492L3072 533L3072 769L2938 769L2805 769L2671 769L2538 769L2404 769L2271 769L2137 769L2003 769L1870 769L1736 769L1603 769L1469 769L1336 769L1202 769L1069 769L935 769L801 769L668 769L534 769L401 769L267 769L134 769L0 769Z" fill="#17181b"></path><path d="M0 641L134 637L267 559L401 564L534 626L668 619L801 535L935 614L1069 569L1202 622L1336 581L1469 589L1603 573L1736 654L1870 633L2003 633L2137 660L2271 570L2404 548L2538 666L2671 609L2805 547L2938 641L3072 566L3072 769L2938 769L2805 769L2671 769L2538 769L2404 769L2271 769L2137 769L2003 769L1870 769L1736 769L1603 769L1469 769L1336 769L1202 769L1069 769L935 769L801 769L668 769L534 769L401 769L267 769L134 769L0 769Z" fill="#16171a"></path><path d="M0 648L134 634L267 656L401 659L534 654L668 694L801 659L935 621L1069 644L1202 647L1336 607L1469 609L1603 649L1736 684L1870 601L2003 648L2137 695L2271 648L2404 601L2538 679L2671 661L2805 646L2938 625L3072 660L3072 769L2938 769L2805 769L2671 769L2538 769L2404 769L2271 769L2137 769L2003 769L1870 769L1736 769L1603 769L1469 769L1336 769L1202 769L1069 769L935 769L801 769L668 769L534 769L401 769L267 769L134 769L0 769Z" fill="#151618"></path><path d="M0 693L134 734L267 706L401 680L534 675L668 714L801 730L935 707L1069 684L1202 666L1336 723L1469 709L1603 734L1736 656L1870 662L2003 670L2137 712L2271 665L2404 697L2538 703L2671 730L2805 736L2938 653L3072 672L3072 769L2938 769L2805 769L2671 769L2538 769L2404 769L2271 769L2137 769L2003 769L1870 769L1736 769L1603 769L1469 769L1336 769L1202 769L1069 769L935 769L801 769L668 769L534 769L401 769L267 769L134 769L0 769Z" fill="#141517"></path></svg>