<svg id="visual" viewBox="0 0 3072 1080" width="3072" height="1080" xmlns="http://www.w3.org/2000/svg" xmlns:xlink="http://www.w3.org/1999/xlink" version="1.1"><path d="M0 66L192 44L384 33L576 87L768 55L960 55L1152 33L1344 87L1536 33L1728 109L1920 55L2112 55L2304 55L2496 55L2688 87L2880 44L3072 77L3072 0L2880 0L2688 0L2496 0L2304 0L2112 0L1920 0L1728 0L1536 0L1344 0L1152 0L960 0L768 0L576 0L384 0L192 0L0 0Z" fill="#1b1c1f"></path><path d="M0 120L192 120L384 98L576 163L768 163L960 120L1152 77L1344 228L1536 185L1728 185L1920 120L2112 185L2304 163L2496 174L2688 217L2880 185L3072 217L3072 75L2880 42L2688 85L2496 53L2304 53L2112 53L1920 53L1728 107L1536 31L1344 85L1152 31L960 53L768 53L576 85L384 31L192 42L0 64Z" fill="#1a1b1e"></path><path d="M0 368L192 379L384 336L576 444L768 476L960 347L1152 282L1344 509L1536 422L1728 487L1920 347L2112 487L2304 368L2496 552L2688 573L2880 476L3072 401L3072 215L2880 183L2688 215L2496 172L2304 161L2112 183L1920 118L1728 183L1536 183L1344 226L1152 75L960 118L768 161L576 161L384 96L192 118L0 118Z" fill="#191a1d"></path><path d="M0 498L192 444L384 379L576 563L768 606L960 433L1152 390L1344 606L1536 509L1728 606L1920 465L2112 595L2304 444L2496 638L2688 627L2880 584L3072 465L3072 399L2880 474L2688 571L2496 550L2304 366L2112 485L1920 345L1728 485L1536 420L1344 507L1152 280L960 345L768 474L576 442L384 334L192 377L0 366Z" fill="#18191c"></path><path d="M0 563L192 530L384 444L576 627L768 671L960 476L1152 487L1344 681L1536 584L1728 681L1920 563L2112 627L2304 541L2496 735L2688 692L2880 649L3072 530L3072 463L2880 582L2688 625L2496 636L2304 442L2112 593L1920 463L1728 604L1536 507L1344 604L1152 388L960 431L768 604L576 561L384 377L192 442L0 496Z" fill="#16171a"></path><path d="M0 843L192 843L384 908L576 833L768 854L960 692L1152 714L1344 789L1536 768L1728 833L1920 746L2112 843L2304 735L2496 897L2688 876L2880 800L3072 897L3072 528L2880 647L2688 690L2496 733L2304 539L2112 625L1920 561L1728 679L1536 582L1344 679L1152 485L960 474L768 669L576 625L384 442L192 528L0 561Z" fill="#151619"></path><path d="M0 908L192 919L384 984L576 919L768 995L960 854L1152 876L1344 876L1536 930L1728 962L1920 908L2112 897L2304 897L2496 973L2688 962L2880 865L3072 973L3072 895L2880 798L2688 874L2496 895L2304 733L2112 841L1920 744L1728 831L1536 766L1344 787L1152 712L960 690L768 852L576 831L384 906L192 841L0 841Z" fill="#141518"></path><path d="M0 1081L192 1081L384 1081L576 1081L768 1081L960 1081L1152 1081L1344 1081L1536 1081L1728 1081L1920 1081L2112 1081L2304 1081L2496 1081L2688 1081L2880 1081L3072 1081L3072 971L2880 863L2688 960L2496 971L2304 895L2112 895L1920 906L1728 960L1536 928L1344 874L1152 874L960 852L768 993L576 917L384 982L192 917L0 906Z" fill="#131417"></path></svg>